<svg width="299" height="279" viewBox="0 0 299 279" fill="none" xmlns="http://www.w3.org/2000/svg">
<path d="M137.436 145.511C138.891 144.754 140.544 144.464 142.17 144.679L265.308 160.974C272.266 161.895 274.752 170.702 269.302 175.127L231.002 206.226C229.27 207.632 227.03 208.25 224.822 207.93L87.1936 188C79.5051 186.887 77.7532 176.561 84.6446 172.975L137.436 145.511Z" fill="#9F9F9F"/>
<path d="M162.614 43.1358L270.783 54.5856L281.436 58.7775L272.227 140.229L268.686 148.32L209.644 141.94L156.44 134.706L151.607 130.615L155.471 95.7792L162.614 43.1358Z" fill="#5A63A0"/>
<path d="M149.958 134.101L265.748 149.429L270.026 157.282L217.019 193.943L85.8311 175.445L87.0304 167.957L149.958 134.101Z" fill="#0C0C0C"/>
<path d="M266.19 160.919L222.398 191.847C217.008 195.654 209.657 194.8 206.656 193.897L88.5551 177.366C85.1446 175.584 85.2278 168.959 87.2884 167.612L137.539 140.929L150.227 134.191L154.629 134.771C151.413 132.662 151.006 128.534 151.205 126.733L160.804 52.3923C161.449 41.9382 167.068 42.2256 169.847 42.3678L169.886 42.3698L274.664 54.5992C281.95 56.0653 282.749 61.8833 282.238 64.609L272.792 143.458C271.899 148.576 267.009 149.457 264.676 149.258C271.167 153.932 268.39 158.98 266.19 160.919Z" fill="#5A63A0"/>
<path d="M264.676 149.258C271.167 153.932 268.39 158.98 266.19 160.919L222.398 191.847C217.008 195.654 209.657 194.8 206.656 193.897L88.5551 177.366C85.1446 175.584 85.2278 168.959 87.2884 167.613L137.539 140.929L150.227 134.191L154.629 134.771M264.676 149.258C267.009 149.457 271.899 148.576 272.792 143.458L282.238 64.609C282.749 61.8833 281.95 56.0653 274.664 54.5992L169.886 42.3698C167.121 42.2286 161.453 41.8887 160.804 52.3923L151.205 126.733C151.006 128.534 151.413 132.662 154.629 134.771M264.676 149.258L154.629 134.771" stroke="#5A63A0" stroke-width="4"/>
<path d="M152.129 142.8C152.895 142.378 153.778 142.218 154.643 142.345L236.735 154.431C240.361 154.965 241.418 159.689 238.366 161.719L223.419 171.659C222.589 172.211 221.582 172.433 220.596 172.282L136.853 159.408C133.08 158.828 132.188 153.795 135.532 151.952L152.129 142.8Z" fill="#0C0C0C"/>
<path d="M141.998 168.052C142.777 167.615 143.68 167.45 144.563 167.586L172.95 171.94C176.507 172.485 177.589 177.082 174.651 179.16L173.794 179.765C172.937 180.371 171.877 180.616 170.841 180.447L142.663 175.851C138.929 175.242 138.051 170.269 141.351 168.416L141.998 168.052Z" fill="#0C0C0C"/>
<path d="M168.997 54.5968C169.281 52.4279 171.255 50.8869 173.428 51.1375L265.227 61.7247C267.435 61.9794 269.01 63.9855 268.732 66.1911L260.007 135.552C259.729 137.767 257.692 139.327 255.481 139.02L163.612 126.25C161.438 125.947 159.916 123.951 160.201 121.775L168.997 54.5968Z" fill="#F6F6F6"/>
<circle cx="3.5" cy="3.5" r="3" transform="matrix(0.991629 -0.129122 0.128792 0.991672 185.735 83)" fill="#0C0C0C" stroke="#0C0C0C"/>
<circle cx="3.5" cy="3.5" r="3.5" transform="matrix(0.991629 -0.129122 0.128792 0.991672 226.735 87)" fill="#0C0C0C"/>
<path d="M182.379 78.9584L196.61 72.0632" stroke="#0C0C0C" stroke-width="3" stroke-linecap="round"/>
<path d="M234.033 72.1714L247.228 80.8675" stroke="#0C0C0C" stroke-width="3" stroke-linecap="round"/>
<path d="M207.121 111.975C211.732 109.597 221.981 106.162 227.605 106.642" stroke="#0C0C0C" stroke-width="3" stroke-linecap="round"/>
<path d="M96.3697 66.75C96.3697 67.7655 96.0686 68.7582 95.5044 69.6026C94.9402 70.447 94.1383 71.1051 93.2 71.4937C92.2618 71.8824 91.2294 71.9841 90.2334 71.7859C89.2374 71.5878 88.3225 71.0988 87.6044 70.3807C86.8863 69.6626 86.3973 68.7477 86.1992 67.7517C86.001 66.7557 86.1027 65.7233 86.4914 64.7851C86.88 63.8468 87.5381 63.0449 88.3825 62.4807C89.2269 61.9165 90.2196 61.6154 91.2351 61.6154C92.5969 61.6154 93.9029 62.1563 94.8658 63.1193C95.8288 64.0822 96.3697 65.3882 96.3697 66.75ZM91.2351 20.5385C81.796 20.5385 74.1197 27.4488 74.1197 35.9423V37.6538C74.1197 38.5617 74.4804 39.4324 75.1223 40.0743C75.7643 40.7163 76.635 41.0769 77.5428 41.0769C78.4507 41.0769 79.3213 40.7163 79.9633 40.0743C80.6052 39.4324 80.9659 38.5617 80.9659 37.6538V35.9423C80.9659 31.2356 85.5742 27.3846 91.2351 27.3846C96.896 27.3846 101.504 31.2356 101.504 35.9423C101.504 40.649 96.896 44.5 91.2351 44.5C90.3273 44.5 89.4566 44.8606 88.8146 45.5026C88.1727 46.1445 87.812 47.0152 87.812 47.9231V51.3461C87.812 52.254 88.1727 53.1247 88.8146 53.7666C89.4566 54.4086 90.3273 54.7692 91.2351 54.7692C92.143 54.7692 93.0136 54.4086 93.6556 53.7666C94.2976 53.1247 94.6582 52.254 94.6582 51.3461V51.0381C102.463 49.6046 108.35 43.3789 108.35 35.9423C108.35 27.4488 100.674 20.5385 91.2351 20.5385ZM135.735 44.5C135.735 53.3013 133.125 61.9049 128.236 69.2229C123.346 76.5408 116.396 82.2445 108.265 85.6126C100.133 88.9807 91.1858 89.862 82.5536 88.1449C73.9214 86.4279 65.9923 82.1897 59.7689 75.9662C53.5454 69.7428 49.3072 61.8137 47.5902 53.1815C45.8731 44.5494 46.7544 35.6019 50.1225 27.4706C53.4906 19.3393 59.1943 12.3893 66.5122 7.4996C73.8302 2.60988 82.4339 0 91.2351 0C103.033 0.0124592 114.345 4.70484 122.688 13.0475C131.03 21.3902 135.723 32.7017 135.735 44.5ZM128.889 44.5C128.889 37.0528 126.681 29.7728 122.543 23.5806C118.406 17.3885 112.525 12.5623 105.645 9.71238C98.7643 6.86245 91.1933 6.11678 83.8892 7.56966C76.5851 9.02254 69.8758 12.6087 64.6098 17.8747C59.3438 23.1407 55.7577 29.85 54.3048 37.1541C52.8519 44.4582 53.5976 52.0292 56.4475 58.9095C59.2974 65.7898 64.1236 71.6706 70.3158 75.808C76.5079 79.9455 83.7879 82.1538 91.2351 82.1538C101.218 82.1425 110.789 78.1718 117.848 71.1128C124.907 64.0538 128.878 54.4829 128.889 44.5Z" fill="#750DC5"/>
<ellipse cx="28.9116" cy="176.5" rx="28" ry="9.5" fill="#9F9F9F"/>
<path d="M42.5872 112.842L16.4057 115.637C13.1703 115.982 13.1786 117.725 13.2679 118.588L19.4517 178.32C20.078 181.044 22.2808 182.088 23.3039 182.27L48.2082 179.612C51.6318 179.421 52.4212 177.346 52.388 176.332L46.2265 116.815C46.2099 113.328 43.7933 112.714 42.5872 112.842Z" fill="#43096F"/>
<rect width="27" height="51" transform="matrix(0.994354 -0.106116 0.102975 0.994684 17 123)" fill="#F6F6F6"/>
<rect width="8" height="2" rx="1" transform="matrix(0.994354 -0.106116 0.102975 0.994684 26 118)" fill="#F6F6F6"/>
<path d="M38.8763 149.992C34.2006 148.24 31.596 147.69 26.0621 147.701" stroke="#0C0C0C" stroke-width="2" stroke-linecap="round"/>
<circle cx="26" cy="138" r="2" fill="#0C0C0C"/>
<circle cx="38" cy="136" r="2" fill="#0C0C0C"/>
<path d="M21 137L26 132" stroke="#0C0C0C" stroke-width="2" stroke-linecap="round"/>
<path d="M37.2637 130.055L42.9356 134.2" stroke="#0C0C0C" stroke-width="2" stroke-linecap="round"/>
</svg>
