<svg width="284" height="305" viewBox="0 0 284 305" fill="none" xmlns="http://www.w3.org/2000/svg">
<path d="M50.5044 214.91C43.5298 210.145 43.5306 199.856 50.5058 195.092L141.944 132.638C145.733 130.05 150.667 129.85 154.654 132.121L228.279 174.077C236.189 178.585 236.395 189.915 228.653 194.707L126.306 258.055C122.27 260.553 117.141 260.437 113.221 257.759L50.5044 214.91Z" fill="#585858"/>
<path d="M53 137.77L161 73V84.2302L53 149V137.77Z" fill="#3B16D0"/>
<path d="M161 73L226 116.844V128L161 84.1557V73Z" fill="#2808A7"/>
<path d="M56 203.173V140.172L160.375 79L222.543 119.224C222.828 119.408 223 119.725 223 120.064V182.26L118.625 245L56 203.173Z" fill="#BCC5FF"/>
<path d="M53 137.77L161 73V84.2302L53 149V137.77Z" fill="#490081"/>
<path d="M161 73L224.237 115.655C225.339 116.399 226 117.641 226 118.971V120.477C226 123.682 222.42 125.585 219.763 123.793L161 84.1557V73Z" fill="#490081"/>
<path d="M168 107.094V106.111C168 102.795 171.804 100.919 174.435 102.938L205.435 126.724C206.422 127.481 207 128.654 207 129.898V131.715C207 135.062 203.134 136.929 200.512 134.847L169.512 110.226C168.557 109.467 168 108.314 168 107.094Z" fill="#F6F6F6"/>
<path d="M73 152.107V154.553C73 157.742 76.5497 159.649 79.2087 157.888L151.209 110.203C152.327 109.462 153 108.21 153 106.868V105.366C153 102.193 149.483 100.283 146.822 102.011L74.822 148.752C73.6857 149.489 73 150.752 73 152.107Z" fill="#F6F6F6"/>
<path d="M60.2671 206.206C57.8226 204.573 57.9162 200.949 60.4417 199.444L158.031 141.29C159.354 140.502 161.012 140.543 162.295 141.396L217.749 178.297C220.191 179.922 220.112 183.535 217.601 185.051L120.503 243.686C119.175 244.488 117.503 244.45 116.213 243.588L60.2671 206.206Z" fill="#011664"/>
<path d="M73 173.12V175.631C73 178.805 76.5181 180.714 79.1792 178.985L151.179 132.208C152.315 131.47 153 130.208 153 128.854V127.288C153 124.131 149.515 122.218 146.852 123.914L74.852 169.746C73.6985 170.48 73 171.753 73 173.12Z" fill="#F6F6F6"/>
<path d="M56 139.651L118.788 181.739V246L57.776 205.188C56.6662 204.446 56 203.198 56 201.863V139.651Z" fill="#BCC5FF"/>
<path d="M68 173.094V172.111C68 168.795 71.8039 166.919 74.435 168.938L105.435 192.724C106.422 193.481 107 194.654 107 195.898V197.715C107 201.062 103.134 202.929 100.512 200.847L69.5123 176.226C68.5568 175.467 68 174.314 68 173.094Z" fill="#F6F6F6"/>
<path d="M168 129.572V128.117C168 124.8 171.806 122.924 174.437 124.945L205.437 148.761C206.422 149.518 207 150.69 207 151.933V152.969C207 156.271 203.226 158.151 200.59 156.162L169.59 132.764C168.589 132.008 168 130.826 168 129.572Z" fill="#F6F6F6"/>
<path d="M118.5 182L223 119V181.722C223 183.134 222.255 184.442 221.041 185.162L118.5 246V182Z" fill="#7D8DF7"/>
<path d="M131 196.107V198.553C131 201.742 134.55 203.649 137.209 201.888L209.209 154.203C210.327 153.462 211 152.21 211 150.868V149.366C211 146.193 207.483 144.283 204.822 146.011L132.822 192.752C131.686 193.489 131 194.752 131 196.107Z" fill="#F6F6F6"/>
<path d="M131 217.12V219.631C131 222.805 134.518 224.714 137.179 222.985L209.179 176.208C210.315 175.47 211 174.208 211 172.854V171.288C211 168.131 207.515 166.218 204.852 167.914L132.852 213.746C131.699 214.48 131 215.753 131 217.12Z" fill="#F6F6F6"/>
<path d="M68 194.572V193.117C68 189.8 71.8061 187.924 74.4369 189.945L105.437 213.761C106.422 214.518 107 215.69 107 216.933V217.969C107 221.271 103.226 223.151 100.59 221.162L69.5903 197.764C68.5888 197.008 68 195.826 68 194.572Z" fill="#F6F6F6"/>
<path d="M53 137.5L118.5 181.5V193.5L53 149.156V137.5Z" fill="#750DC5"/>
<path d="M118.5 181.5L226 117V127.226C226 128.636 225.258 129.942 224.046 130.663L118.5 193.5V181.5Z" fill="#4E0089"/>
<path d="M100.656 68.6395C100.521 86.8535 100.3 108.474 100.469 109.322L88 116.871V60.9046L100.729 57L179.058 103.992C180.263 104.715 181 106.017 181 107.422V150.475C181 151.909 180.232 153.233 178.988 153.946L177.895 154.571C175.229 156.098 171.908 154.173 171.908 151.1V114.429C171.908 113.035 171.183 111.742 169.994 111.016L100.656 68.6395Z" fill="#0C0C0C"/>
<path d="M100.729 57L182 105L171.908 113L88 60.9437L100.729 57Z" fill="#454545"/>
<path d="M172 111.849L182 105V153.732L172 159V111.849Z" fill="#424242"/>
<path d="M141 35.9999L141 7.99994" stroke="#C1C1C1" stroke-width="16" stroke-linecap="round"/>
<path d="M254.098 94.6909L273.902 74.8973" stroke="#C1C1C1" stroke-width="16" stroke-linecap="round"/>
<path d="M29.8536 90.4416L9.74961 70.9524" stroke="#C1C1C1" stroke-width="16" stroke-linecap="round"/>
<path d="M232.746 225.128L256.997 239.123" stroke="#C1C1C1" stroke-width="16" stroke-linecap="round"/>
<path d="M141 269L141 297" stroke="#C1C1C1" stroke-width="16" stroke-linecap="round"/>
<path d="M38.2493 224.883L13.9972 238.877" stroke="#C1C1C1" stroke-width="16" stroke-linecap="round"/>
</svg>
