<svg width="21" height="24" viewBox="0 0 21 24" fill="none" xmlns="http://www.w3.org/2000/svg">
<path d="M3.9375 24C3.21563 24 2.59744 23.7387 2.08294 23.216C1.56844 22.6933 1.31163 22.0658 1.3125 21.3333V4H1C0.447715 4 0 3.55228 0 3C0 2.44772 0.447715 2 1 2H6.5625V1C6.5625 0.447715 7.01022 0 7.5625 0H13.4375C13.9898 0 14.4375 0.447715 14.4375 1V2H20C20.5523 2 21 2.44772 21 3C21 3.55228 20.5523 4 20 4H19.6875V21.3333C19.6875 22.0667 19.4303 22.6947 18.9158 23.2173C18.4013 23.74 17.7835 24.0009 17.0625 24H3.9375ZM17.7158 4H3.5V22L17.7158 22V4ZM7 17.6667C7 18.219 7.44772 18.6667 8 18.6667C8.55229 18.6667 9 18.219 9 17.6667V7.66667C9 7.11438 8.55229 6.66667 8 6.66667C7.44772 6.66667 7 7.11438 7 7.66667V17.6667ZM12 17.6667C12 18.219 12.4477 18.6667 13 18.6667C13.5523 18.6667 14 18.219 14 17.6667V7.66667C14 7.11438 13.5523 6.66667 13 6.66667C12.4477 6.66667 12 7.11438 12 7.66667V17.6667Z" fill="#454545"/>
</svg>
