<svg width="24" height="24" viewBox="0 0 24 24" fill="none" xmlns="http://www.w3.org/2000/svg">
<rect x="1" y="1" width="22" height="22" rx="3" stroke="#454545" stroke-width="2"/>
<path d="M15.0779 6.50136C15.2368 6.34241 15.4255 6.21632 15.6332 6.1303C15.8409 6.04428 16.0635 6 16.2883 6C16.513 6 16.7356 6.04428 16.9433 6.1303C17.151 6.21632 17.3397 6.34241 17.4986 6.50136C17.6576 6.66031 17.7837 6.84901 17.8697 7.05669C17.9557 7.26436 18 7.48695 18 7.71174C18 7.93653 17.9557 8.15912 17.8697 8.3668C17.7837 8.57447 17.6576 8.76317 17.4986 8.92212L9.32855 17.0922L6 18L6.90779 14.6714L15.0779 6.50136Z" stroke="#3F3F3F" stroke-width="2" stroke-linecap="round" stroke-linejoin="round"/>
</svg>
