<svg width="113" height="20" viewBox="0 0 113 20" fill="none" xmlns="http://www.w3.org/2000/svg">
<path d="M14.576 9.332C14.688 9.332 14.7813 9.37867 14.856 9.472C14.9307 9.54667 14.968 9.63067 14.968 9.724V15.912C14.968 16.472 14.856 17.004 14.632 17.508C14.4267 18.012 14.1373 18.4507 13.764 18.824C13.3907 19.1787 12.952 19.468 12.448 19.692C11.9627 19.8973 11.44 20 10.88 20H4.636C4.076 20 3.544 19.8973 3.04 19.692C2.55467 19.468 2.12533 19.1787 1.752 18.824C1.37867 18.4507 1.08 18.012 0.856 17.508C0.650667 17.004 0.548 16.472 0.548 15.912V4.88C0.548 4.32 0.650667 3.79733 0.856 3.312C1.08 2.808 1.37867 2.36933 1.752 1.996C2.12533 1.62267 2.55467 1.33333 3.04 1.128C3.544 0.903999 4.076 0.791999 4.636 0.791999H10.88C11.44 0.791999 11.9627 0.903999 12.448 1.128C12.952 1.33333 13.3813 1.62267 13.736 1.996C14.1093 2.35067 14.408 2.78 14.632 3.284C14.856 3.76933 14.968 4.292 14.968 4.852V6.168C14.968 6.42933 14.8373 6.56 14.576 6.56H13.232C12.9707 6.56 12.84 6.42933 12.84 6.168V4.852C12.8213 4.31067 12.6253 3.85333 12.252 3.48C11.8787 3.10667 11.4213 2.92 10.88 2.92H4.636C4.09467 2.92 3.628 3.116 3.236 3.508C2.86267 3.88133 2.676 4.33867 2.676 4.88V15.912C2.676 16.4533 2.86267 16.92 3.236 17.312C3.628 17.6853 4.09467 17.872 4.636 17.872H10.88C11.4213 17.872 11.8787 17.6853 12.252 17.312C12.644 16.92 12.84 16.4533 12.84 15.912V11.46H8.248C8.15467 11.46 8.06133 11.4227 7.968 11.348C7.89333 11.2733 7.856 11.18 7.856 11.068V9.724C7.856 9.63067 7.89333 9.54667 7.968 9.472C8.06133 9.37867 8.15467 9.332 8.248 9.332H14.576ZM21.1921 0.791999H22.5361C22.7974 0.791999 22.9281 0.922665 22.9281 1.184V17.872H33.8761C33.9881 17.872 34.0814 17.9187 34.1561 18.012C34.2308 18.0867 34.2681 18.1707 34.2681 18.264V19.608C34.2681 19.8693 34.1374 20 33.8761 20H21.1921C21.0988 20 21.0054 19.9627 20.9121 19.888C20.8374 19.8133 20.8001 19.72 20.8001 19.608V1.184C20.8001 1.072 20.8374 0.978666 20.9121 0.903999C21.0054 0.829332 21.0988 0.791999 21.1921 0.791999ZM49.3955 0.791999C49.5075 0.791999 49.6102 0.829332 49.7035 0.903999C49.8155 0.978666 49.8902 1.06267 49.9275 1.156L53.8195 10.9C53.8569 10.9933 53.8849 11.1147 53.9035 11.264C53.9409 11.4133 53.9595 11.544 53.9595 11.656V19.608C53.9595 19.8693 53.8289 20 53.5675 20H52.2515C51.9902 20 51.8595 19.8693 51.8595 19.608V14.428H41.6955V19.608C41.6955 19.8693 41.5649 20 41.3035 20H39.9595C39.6982 20 39.5675 19.8693 39.5675 19.608V11.656C39.5675 11.544 39.5769 11.4133 39.5955 11.264C39.6329 11.1147 39.6702 10.9933 39.7075 10.9L43.5995 1.156C43.6369 1.06267 43.7115 0.978666 43.8235 0.903999C43.9355 0.829332 44.0382 0.791999 44.1315 0.791999H49.3955ZM51.8595 12.328V11.656L48.3595 2.92H45.1955L41.6955 11.656V12.328H51.8595ZM71.383 19.608V11.572L61.219 3.172V19.608C61.219 19.8693 61.0883 20 60.827 20H59.483C59.3896 20 59.2963 19.9627 59.203 19.888C59.1283 19.8133 59.091 19.72 59.091 19.608V1.184C59.091 1.072 59.1283 0.978666 59.203 0.903999C59.2963 0.829332 59.3896 0.791999 59.483 0.791999H61.359C61.6203 0.791999 61.8536 0.875999 62.059 1.044L71.383 8.744V1.184C71.383 0.922665 71.5136 0.791999 71.775 0.791999H73.119C73.3803 0.791999 73.511 0.922665 73.511 1.184V19.608C73.511 19.8693 73.3803 20 73.119 20H71.775C71.5136 20 71.383 19.8693 71.383 19.608ZM93.0344 6.168C93.0344 6.42933 92.9037 6.56 92.6424 6.56H91.2984C91.0371 6.56 90.9064 6.42933 90.9064 6.168V4.852C90.8877 4.31067 90.6917 3.85333 90.3184 3.48C89.9451 3.10667 89.4877 2.92 88.9464 2.92H82.7024C82.1611 2.92 81.6944 3.116 81.3024 3.508C80.9291 3.88133 80.7424 4.33867 80.7424 4.88V15.912C80.7424 16.4533 80.9291 16.92 81.3024 17.312C81.6944 17.6853 82.1611 17.872 82.7024 17.872H88.9464C89.4877 17.872 89.9451 17.6947 90.3184 17.34C90.6917 16.9667 90.8877 16.5093 90.9064 15.968V14.624C90.9064 14.5307 90.9437 14.4467 91.0184 14.372C91.0931 14.2787 91.1864 14.232 91.2984 14.232H92.6424C92.7544 14.232 92.8477 14.2787 92.9224 14.372C92.9971 14.4467 93.0344 14.5307 93.0344 14.624V15.968C93.0344 16.528 92.9224 17.0507 92.6984 17.536C92.4744 18.0213 92.1757 18.4507 91.8024 18.824C91.4477 19.1787 91.0184 19.468 90.5144 19.692C90.0291 19.8973 89.5064 20 88.9464 20H82.7024C82.1424 20 81.6104 19.8973 81.1064 19.692C80.6211 19.468 80.1917 19.1787 79.8184 18.824C79.4637 18.4507 79.1744 18.012 78.9504 17.508C78.7451 17.004 78.6424 16.472 78.6424 15.912V4.88C78.6424 4.32 78.7451 3.79733 78.9504 3.312C79.1744 2.808 79.4637 2.36933 79.8184 1.996C80.1917 1.62267 80.6211 1.33333 81.1064 1.128C81.6104 0.903999 82.1424 0.791999 82.7024 0.791999H88.9464C89.5064 0.791999 90.0291 0.903999 90.5144 1.128C91.0184 1.33333 91.4477 1.62267 91.8024 1.996C92.1757 2.35067 92.4744 2.78 92.6984 3.284C92.9224 3.76933 93.0344 4.292 93.0344 4.852V6.168ZM98.5858 19.608V1.184C98.5858 0.922665 98.7165 0.791999 98.9778 0.791999H112.026C112.287 0.791999 112.418 0.922665 112.418 1.184V2.528C112.418 2.78933 112.287 2.92 112.026 2.92H100.686V9.332H110.514C110.607 9.332 110.691 9.37867 110.766 9.472C110.859 9.54667 110.906 9.63067 110.906 9.724V11.068C110.906 11.18 110.859 11.2733 110.766 11.348C110.691 11.4227 110.607 11.46 110.514 11.46H100.686V17.872H112.026C112.138 17.872 112.231 17.9187 112.306 18.012C112.381 18.0867 112.418 18.1707 112.418 18.264V19.608C112.418 19.8693 112.287 20 112.026 20H98.9778C98.7165 20 98.5858 19.8693 98.5858 19.608Z" fill="url(#paint0_linear_307_35212)"/>
<defs>
<linearGradient id="paint0_linear_307_35212" x1="110.216" y1="5.28572" x2="-1.89784" y2="27.5152" gradientUnits="userSpaceOnUse">
<stop stop-color="#260DC1"/>
<stop offset="1" stop-color="#59006F"/>
</linearGradient>
</defs>
</svg>
