<svg width="21" height="17" viewBox="0 0 21 17" fill="none" xmlns="http://www.w3.org/2000/svg">
<path d="M18.112 2.32611C17.6722 1.90569 17.15 1.57219 16.5752 1.34465C16.0005 1.11711 15.3844 1 14.7623 1C14.1401 1 13.5241 1.11711 12.9493 1.34465C12.3746 1.57219 11.8524 1.90569 11.4126 2.32611L10.4998 3.19821L9.58699 2.32611C8.69858 1.4773 7.49364 1.00044 6.23725 1.00044C4.98085 1.00044 3.77591 1.4773 2.88751 2.32611C1.9991 3.17492 1.5 4.32616 1.5 5.52656C1.5 6.72696 1.9991 7.87819 2.88751 8.727L3.80029 9.5991L10.4998 16L17.1992 9.5991L18.112 8.727C18.5521 8.30679 18.9011 7.80785 19.1393 7.25871C19.3774 6.70957 19.5 6.12097 19.5 5.52656C19.5 4.93214 19.3774 4.34355 19.1393 3.7944C18.9011 3.24526 18.5521 2.74633 18.112 2.32611Z" fill="#F6F6F6" stroke="#0C0C0C" stroke-width="2" stroke-linecap="round" stroke-linejoin="round"/>
</svg>
